<svg version="1" xmlns="http://www.w3.org/2000/svg" width="346.667" height="346.667" viewBox="0 0 260.000000 260.000000"><path d="M60.7 3.6c-.1.1-2.4.5-5.2.8-15 2-30.2 10.5-39.4 22.3-5.2 6.6-7.5 11-10.6 19.5C.3 60.5.1 63.4.1 132.5c.1 58.8.2 64.7 1.9 73 5.8 27.6 24.9 45.8 52.5 50.2 1.7.2 7.7.4 13.5.4 34.9 0 54.9-18.5 62.3-57.7l.6-3.1-12.7-3.7c-7-2-16.2-4.7-20.4-6-4.3-1.3-7.8-1.9-7.8-1.4v1c0 .2-.9 3.7-2 7.8-3.8 13.7-9.2 18.7-19.3 17.7-6.2-.5-9.6-3-12.7-9.3l-2.5-4.9-.3-61.3c-.2-39.7.1-63.2.8-66.9 2.1-11.5 6.4-16.3 15.3-17.1 11.3-.9 17.2 5.6 20.1 22.2.3 1.6.7 3 .9 3.2.1.2 6.4-1.6 13.8-4 7.3-2.3 16.2-5.1 19.7-6.1 7.3-2.2 7.4-2.3 3.7-14.8C120.3 26.9 102.2 9.1 79.8 5c-5.4-1-18.5-1.9-19.1-1.4zM148.9 7.2c-.4.8-.5 243.5-.1 244.5.3 1 12.4 1.3 55.8 1.3H260v-49.5h-60V7h-25.5c-14 0-25.6.1-25.6.2z"/></svg>